<?xml version="1.0" encoding="UTF-8"?><svg id="a" xmlns="http://www.w3.org/2000/svg" width="53" height="53" viewBox="0 0 53 53"><g id="b"><g id="c"><g id="d"><g id="e"><rect x=".5" y=".5" width="52" height="52" rx="12" ry="12" fill="#2a6fb2"/><rect x=".5" y=".5" width="52" height="52" rx="12" ry="12" fill="none" stroke="#fff" stroke-miterlimit="10"/></g><polyline points="39.28 20.75 28.82 20.75 28.82 47.49" fill="none" stroke="#fff" stroke-linecap="round" stroke-linejoin="round" stroke-width="1.5"/><polyline points="23.08 47.49 23.08 21.7 13.74 21.68" fill="none" stroke="#fff" stroke-linecap="round" stroke-linejoin="round" stroke-width="1.5"/><line x1="26.02" y1="47.49" x2="26.02" y2="10.18" fill="none" stroke="#fff" stroke-linecap="round" stroke-linejoin="round" stroke-width="1.5"/><circle cx="10.95" cy="21.68" r="2.79" fill="none" stroke="#fff" stroke-miterlimit="10" stroke-width="1.5"/><circle cx="42.74" cy="20.75" r="2.74" fill="none" stroke="#fff" stroke-miterlimit="10" stroke-width="1.5"/><circle cx="33.66" cy="10.93" r="1.77" fill="none" stroke="#fff" stroke-miterlimit="10" stroke-width="1.5"/><polyline points="25.78 18.71 18.1 18.68 14.79 15" fill="none" stroke="#fff" stroke-linecap="round" stroke-linejoin="round" stroke-width="1.5"/><circle cx="13.22" cy="13.71" r="1.81" fill="none" stroke="#fff" stroke-miterlimit="10" stroke-width="1.5"/><polyline points="25.78 13.4 22.3 13.4 19.8 11.59" fill="none" stroke="#fff" stroke-linecap="round" stroke-linejoin="round" stroke-width="1.5"/><circle cx="18.71" cy="10.53" r="1.37" fill="none" stroke="#fff" stroke-miterlimit="10" stroke-width="1.5"/><polyline points="26.15 15.78 29.71 15.78 32.28 12.7" fill="none" stroke="#fff" stroke-linecap="round" stroke-linejoin="round" stroke-width="1.5"/><circle cx="26.02" cy="7.74" r="2.23" fill="none" stroke="#fff" stroke-miterlimit="10" stroke-width="1.5"/><polyline points="32.58 20.75 32.58 17.55 36.48 16.19" fill="none" stroke="#fff" stroke-linecap="round" stroke-linejoin="round" stroke-width="1.5"/><circle cx="38.01" cy="15.78" r="1.36" fill="none" stroke="#fff" stroke-miterlimit="10" stroke-width="1.5"/></g></g></g></svg>