<?xml version="1.0" encoding="UTF-8"?>
<svg id="a" xmlns="http://www.w3.org/2000/svg" width="343.59" height="53" viewBox="0 0 343.59 53">
	<g id="b">
		<g id="c">
			<g id="d">
				<g>
					<path d="M338.48,50.98V2.02c0-.48,.24-.72,.72-.72h3.67c.48,0,.72,.24,.72,.72V50.98c0,.48-.24,.72-.72,.72h-3.67c-.48,0-.72-.24-.72-.72Z" fill="#2c71b2" />
					<path d="M328.46,2.02v3.1c0,.48-.24,.72-.72,.72h-14.11c-.19,0-.29,.1-.29,.29V50.99c0,.48-.24,.72-.72,.72h-3.67c-.48,0-.72-.24-.72-.72V6.13c0-.19-.1-.29-.29-.29h-13.54c-.48,0-.72-.24-.72-.72V2.02c0-.48,.24-.72,.72-.72h33.34c.48,0,.72,.24,.72,.72h0Z" fill="#2c71b2" />
					<path d="M279.26,1.3h3.67c.48,0,.72,.24,.72,.72V50.98c0,.48-.24,.72-.72,.72h-3.6c-.34,0-.62-.17-.86-.5l-24.55-39.96c-.05-.14-.12-.2-.22-.18s-.14,.11-.14,.25l.07,39.67c0,.48-.24,.72-.72,.72h-3.67c-.48,0-.72-.24-.72-.72V2.02c0-.48,.24-.72,.72-.72h3.6c.34,0,.62,.17,.86,.5l24.55,39.96c.05,.14,.12,.2,.22,.18s.14-.11,.14-.25l-.07-39.67c0-.48,.24-.72,.72-.72h0Z" fill="#2c71b2" />
					<path d="M238.42,50.91L222.44,1.88c-.14-.38-.43-.58-.86-.58h-4.9c-.43,0-.72,.19-.86,.58l-15.91,49.03c-.14,.53,.05,.79,.58,.79h3.89c.43,0,.72-.19,.86-.58l13.68-43.2c.05-.1,.12-.14,.22-.14s.17,.05,.22,.14l13.75,43.2c.14,.38,.43,.58,.86,.58h3.89c.43,0,.65-.17,.65-.5l-.07-.29h-.02Z" fill="#2c71b2" />
					<path id="e" d="M189.76,50.84l-10.8-22.18c-.1-.14-.05-.26,.14-.36,3.12-.67,5.59-2.18,7.42-4.54,1.82-2.35,2.74-5.21,2.74-8.57,0-4.13-1.27-7.48-3.82-10.04-2.54-2.57-5.88-3.85-10.01-3.85h-18.65c-.4,0-.72,.32-.72,.72v3.02c0,.4,.32,.72,.72,.72h18.07c2.78,0,5.04,.88,6.77,2.63,1.73,1.75,2.59,4.02,2.59,6.8s-.86,5.04-2.59,6.77-3.98,2.59-6.77,2.59h-18.07c-.4,0-.72,.32-.72,.72v25.7c0,.4,.32,.72,.72,.72h3.67c.4,0,.72-.32,.72-.72V28.94c0-.16,.13-.29,.29-.29h12.24c.14,0,.24,.07,.29,.22l10.58,22.32c.14,.34,.43,.5,.86,.5h3.82c.38,0,.58-.17,.58-.5,0-.14-.02-.26-.07-.36h0Z" fill="#2c71b2" />
					<g id="f">
						<rect x="113.43" y="1.3" width="32.62" height="4.46" rx=".72" ry=".72" fill="#2c71b2" />
						<rect x="113.43" y="47.24" width="32.62" height="4.46" rx=".72" ry=".72" fill="#2c71b2" />
						<rect x="113.43" y="24.59" width="32.62" height="4.46" rx=".72" ry=".72" fill="#2c71b2" />
					</g>
					<path d="M98.94,1.3h3.74c.48,0,.72,.24,.72,.72V50.98c0,.48-.24,.72-.72,.72h-3.67c-.48,0-.72-.24-.72-.72V10.95c0-.14-.05-.24-.14-.29-.1-.05-.17,0-.22,.14l-11.74,18c-.24,.34-.53,.5-.86,.5h-1.87c-.34,0-.62-.14-.86-.43l-11.74-17.86c-.05-.14-.12-.19-.22-.14s-.14,.14-.14,.29V50.98c0,.48-.24,.72-.72,.72h-3.67c-.48,0-.72-.24-.72-.72V2.02c0-.48,.24-.72,.72-.72h3.74c.38,0,.67,.14,.86,.43l13.54,20.52s.12,.07,.22,.07,.17-.02,.22-.07L98.08,1.8c.24-.34,.53-.5,.86-.5h0Z" fill="#2c71b2" />
				</g>
				<g id="g">
					<g id="h">
						<rect x=".5" y=".5" width="52" height="52" rx="12" ry="12" fill="#2a6fb2" />
						<rect x=".5" y=".5" width="52" height="52" rx="12" ry="12" fill="none" stroke="#fff" stroke-miterlimit="10" />
					</g>
					<polyline points="39.28 20.75 28.81 20.75 28.81 47.49" fill="none" stroke="#fff" stroke-linecap="round" stroke-linejoin="round" stroke-width="1.5" />
					<polyline points="23.08 47.49 23.08 21.71 13.74 21.68" fill="none" stroke="#fff" stroke-linecap="round" stroke-linejoin="round" stroke-width="1.5" />
					<line x1="26.02" y1="47.49" x2="26.02" y2="10.18" fill="none" stroke="#fff" stroke-linecap="round" stroke-linejoin="round" stroke-width="1.5" />
					<circle cx="10.95" cy="21.68" r="2.79" fill="none" stroke="#fff" stroke-miterlimit="10" stroke-width="1.5" />
					<circle cx="42.73" cy="20.75" r="2.74" fill="none" stroke="#fff" stroke-miterlimit="10" stroke-width="1.5" />
					<circle cx="33.66" cy="10.93" r="1.77" fill="none" stroke="#fff" stroke-miterlimit="10" stroke-width="1.5" />
					<polyline points="25.78 18.71 18.1 18.68 14.79 15" fill="none" stroke="#fff" stroke-linecap="round" stroke-linejoin="round" stroke-width="1.5" />
					<circle cx="13.22" cy="13.72" r="1.81" fill="none" stroke="#fff" stroke-miterlimit="10" stroke-width="1.5" />
					<polyline points="25.78 13.41 22.29 13.41 19.8 11.59" fill="none" stroke="#fff" stroke-linecap="round" stroke-linejoin="round" stroke-width="1.5" />
					<circle cx="18.71" cy="10.53" r="1.37" fill="none" stroke="#fff" stroke-miterlimit="10" stroke-width="1.5" />
					<polyline points="26.15 15.79 29.71 15.79 32.27 12.7" fill="none" stroke="#fff" stroke-linecap="round" stroke-linejoin="round" stroke-width="1.5" />
					<circle cx="26.02" cy="7.74" r="2.23" fill="none" stroke="#fff" stroke-miterlimit="10" stroke-width="1.5" />
					<polyline points="32.58 20.75 32.58 17.56 36.48 16.19" fill="none" stroke="#fff" stroke-linecap="round" stroke-linejoin="round" stroke-width="1.5" />
					<circle cx="38.01" cy="15.79" r="1.36" fill="none" stroke="#fff" stroke-miterlimit="10" stroke-width="1.5" />
				</g>
			</g>
		</g>
	</g>
</svg>
