<?xml version="1.0" encoding="UTF-8"?>
<svg id="a" xmlns="http://www.w3.org/2000/svg" width="299.07" height="63.03" viewBox="0 0 299.07 63.03">
	<g id="b">
		<g id="c">
			<g>
				<path d="M293.96,56V7.04c0-.48,.24-.72,.72-.72h3.67c.48,0,.72,.24,.72,.72V56c0,.48-.24,.72-.72,.72h-3.67c-.48,0-.72-.24-.72-.72Z" fill="#2c71b2" />
				<path d="M215.5,6.32h3.67c.48,0,.72,.24,.72,.72V56c0,.48-.24,.72-.72,.72h-3.6c-.34,0-.62-.17-.86-.5l-24.55-39.96c-.05-.14-.12-.2-.22-.18s-.14,.11-.14,.25l.07,39.67c0,.48-.24,.72-.72,.72h-3.67c-.48,0-.72-.24-.72-.72V7.04c0-.48,.24-.72,.72-.72h3.6c.34,0,.62,.17,.86,.5l24.55,39.96c.05,.14,.12,.2,.22,.18s.14-.11,.14-.25l-.07-39.67c0-.48,.24-.72,.72-.72Z" fill="#2c71b2" />
				<path d="M174.26,55.92l-15.98-49.03c-.14-.38-.43-.58-.86-.58h-4.9c-.43,0-.72,.19-.86,.58l-15.91,49.03c-.14,.53,.05,.79,.58,.79h3.89c.43,0,.72-.19,.86-.58l13.68-43.2c.05-.1,.12-.14,.22-.14s.17,.05,.22,.14l13.75,43.2c.14,.38,.43,.58,.86,.58h3.89c.43,0,.65-.17,.65-.5l-.07-.29h-.02Z" fill="#2c71b2" />
				<path id="d" d="M125.19,55.85l-10.8-22.18c-.1-.14-.05-.26,.14-.36,3.12-.67,5.59-2.18,7.42-4.54,1.82-2.35,2.74-5.21,2.74-8.57,0-4.13-1.27-7.48-3.82-10.04-2.54-2.57-5.88-3.85-10.01-3.85h-18.65c-.4,0-.72,.32-.72,.72v3.02c0,.4,.32,.72,.72,.72h18.07c2.78,0,5.04,.88,6.77,2.63,1.73,1.75,2.59,4.02,2.59,6.8s-.86,5.04-2.59,6.77-3.98,2.59-6.77,2.59h-18.07c-.4,0-.72,.32-.72,.72v25.7c0,.4,.32,.72,.72,.72h3.67c.4,0,.72-.32,.72-.72v-22.03c0-.16,.13-.29,.29-.29h12.24c.14,0,.24,.07,.29,.22l10.58,22.32c.14,.34,.43,.5,.86,.5h3.82c.38,0,.58-.17,.58-.5,0-.14-.02-.26-.07-.36h0Z" fill="#2c71b2" />
				<g id="e">
					<rect x="48.45" y="6.32" width="32.62" height="4.46" rx=".72" ry=".72" fill="#2c71b2" />
					<rect x="48.45" y="52.25" width="32.62" height="4.46" rx=".72" ry=".72" fill="#2c71b2" />
					<rect x="48.45" y="29.6" width="32.62" height="4.46" rx=".72" ry=".72" fill="#2c71b2" />
				</g>
				<path d="M33.55,6.32h3.74c.48,0,.72,.24,.72,.72V56c0,.48-.24,.72-.72,.72h-3.67c-.48,0-.72-.24-.72-.72V15.96c0-.14-.05-.24-.14-.29-.1-.05-.17,0-.22,.14l-11.74,18c-.24,.34-.53,.5-.86,.5h-1.87c-.34,0-.62-.14-.86-.43L5.47,16.04c-.05-.14-.12-.19-.22-.14-.1,.05-.14,.14-.14,.29V56c0,.48-.24,.72-.72,.72H.72c-.48,0-.72-.24-.72-.72V7.04c0-.48,.24-.72,.72-.72h3.74c.38,0,.67,.14,.86,.43l13.54,20.52s.12,.07,.22,.07,.17-.02,.22-.07L32.69,6.82c.24-.34,.53-.5,.86-.5Z" fill="#2c71b2" />
			</g>
			<g id="f">
				<g id="g">
					<rect x="230.33" y=".75" width="53.2" height="61.53" rx="12" ry="12" fill="#2a6fb2" />
					<rect x="230.33" y=".75" width="53.2" height="61.53" rx="12" ry="12" fill="none" stroke="#fff" stroke-miterlimit="10" stroke-width="1.5" />
				</g>
				<polyline points="268.64 25.77 259.72 25.77 259.72 52.51" fill="none" stroke="#fff" stroke-linecap="round" stroke-linejoin="round" stroke-width="1.5" />
				<polyline points="253.98 52.51 253.98 27.68 244.64 27.65" fill="none" stroke="#fff" stroke-linecap="round" stroke-linejoin="round" stroke-width="1.5" />
				<line x1="256.93" y1="52.51" x2="256.93" y2="15.2" fill="none" stroke="#fff" stroke-linecap="round" stroke-linejoin="round" stroke-width="1.5" />
				<circle cx="241.36" cy="27.92" r="2.93" fill="none" stroke="#fff" stroke-miterlimit="10" stroke-width="1.5" />
				<circle cx="271.91" cy="26.24" r="2.74" fill="none" stroke="#fff" stroke-miterlimit="10" stroke-width="1.5" />
				<circle cx="264.56" cy="15.95" r="1.77" fill="none" stroke="#fff" stroke-miterlimit="10" stroke-width="1.5" />
				<polyline points="256.68 23.72 249 23.69 245.69 20.02" fill="none" stroke="#fff" stroke-linecap="round" stroke-linejoin="round" stroke-width="1.5" />
				<circle cx="243.88" cy="18.99" r="1.81" fill="none" stroke="#fff" stroke-miterlimit="10" stroke-width="1.5" />
				<polyline points="256.68 18.42 253.2 18.42 250.71 16.6" fill="none" stroke="#fff" stroke-linecap="round" stroke-linejoin="round" stroke-width="1.5" />
				<circle cx="249.61" cy="15.55" r="1.37" fill="none" stroke="#fff" stroke-miterlimit="10" stroke-width="1.5" />
				<polyline points="257.06 20.8 260.61 20.8 263.18 17.72" fill="none" stroke="#fff" stroke-linecap="round" stroke-linejoin="round" stroke-width="1.5" />
				<circle cx="256.93" cy="12.76" r="2.23" transform="translate(185.48 259.89) rotate(-76.72)" fill="none" stroke="#fff" stroke-miterlimit="10" stroke-width="1.5" />
				<polyline points="263.48 25.77 263.48 22.57 267.39 21.21" fill="none" stroke="#fff" stroke-linecap="round" stroke-linejoin="round" stroke-width="1.5" />
				<circle cx="268.92" cy="20.8" r="1.36" fill="none" stroke="#fff" stroke-miterlimit="10" stroke-width="1.5" />
			</g>
		</g>
	</g>
</svg>
