<?xml version="1.0" encoding="UTF-8"?>
<svg id="a" xmlns="http://www.w3.org/2000/svg" width="347.09" height="56" viewBox="0 0 347.09 56">
	<g id="b">
		<g>
			<g>
				<rect x="338.98" y="1.8" width="7.11" height="52.4" rx="1.72" ry="1.72" fill="#2c71b2" />
				<path d="M344.37,2.8c.48,0,.72,.24,.72,.72V52.48c0,.48-.24,.72-.72,.72h-3.67c-.48,0-.72-.24-.72-.72V3.52c0-.48,.24-.72,.72-.72h3.67m0-2h-3.67c-1.58,0-2.72,1.14-2.72,2.72V52.48c0,1.58,1.14,2.72,2.72,2.72h3.67c1.58,0,2.72-1.14,2.72-2.72V3.52c0-1.58-1.14-2.72-2.72-2.72h0Z" fill="#fff" />
			</g>
			<g>
				<path d="M310.45,54.2c-1.03,0-1.72-.69-1.72-1.72V8.34h-12.82c-1.03,0-1.72-.69-1.72-1.72V3.52c0-1.03,.69-1.72,1.72-1.72h33.34c1.03,0,1.72,.69,1.72,1.72v3.1c0,1.03-.69,1.72-1.72,1.72h-13.4V52.48c0,1.03-.69,1.72-1.72,1.72h-3.68Z" fill="#2c71b2" />
				<path d="M329.24,2.8c.48,0,.72,.24,.72,.72v3.1c0,.48-.24,.72-.72,.72h-14.11c-.19,0-.29,.1-.29,.29V52.48c0,.48-.24,.72-.72,.72h-3.67c-.48,0-.72-.24-.72-.72V7.62c0-.19-.1-.29-.29-.29h-13.54c-.48,0-.72-.24-.72-.72V3.52c0-.48,.24-.72,.72-.72h33.34m0-2h-33.34c-1.58,0-2.72,1.14-2.72,2.72v3.1c0,1.58,1.14,2.72,2.72,2.72h11.82V52.48c0,1.58,1.14,2.72,2.72,2.72h3.67c1.58,0,2.72-1.14,2.72-2.72V9.34h12.4c1.58,0,2.72-1.14,2.72-2.72V3.52c0-1.58-1.14-2.72-2.72-2.72h0Z" fill="#fff" />
			</g>
			<g>
				<path d="M280.84,54.2c-.46,0-1.13-.16-1.68-.92l-23.09-37.58,.07,36.78c0,1.03-.69,1.72-1.72,1.72h-3.67c-1.03,0-1.72-.69-1.72-1.72V3.52c0-1.03,.69-1.72,1.72-1.72h3.6c.46,0,1.13,.16,1.68,.92l23.09,37.58-.07-36.78c0-1.03,.69-1.72,1.72-1.72h3.67c1.03,0,1.72,.69,1.72,1.72V52.48c0,1.03-.69,1.72-1.72,1.72h-3.6Z" fill="#2c71b2" />
				<path d="M284.44,2.8c.48,0,.72,.24,.72,.72V52.48c0,.48-.24,.72-.72,.72h-3.6c-.34,0-.62-.17-.86-.5l-24.55-39.96c-.04-.12-.1-.19-.18-.19h-.04c-.1,.02-.14,.11-.14,.25l.07,39.67c0,.48-.24,.72-.72,.72h-3.67c-.48,0-.72-.24-.72-.72V3.52c0-.48,.24-.72,.72-.72h3.6c.34,0,.62,.17,.86,.5l24.55,39.96c.04,.12,.1,.19,.18,.19h.04c.1-.02,.14-.11,.14-.25l-.07-39.67c0-.48,.24-.72,.72-.72h3.67m0-2h-3.67c-1.58,0-2.72,1.14-2.72,2.72l.06,33.24L256.91,2.26s-.05-.08-.08-.12c-.62-.86-1.5-1.34-2.49-1.34h-3.6c-1.58,0-2.72,1.14-2.72,2.72V52.48c0,1.58,1.14,2.72,2.72,2.72h3.67c1.58,0,2.72-1.14,2.72-2.72l-.06-33.23,21.2,34.5s.05,.08,.08,.12c.62,.87,1.5,1.34,2.49,1.34h3.6c1.58,0,2.72-1.14,2.72-2.72V3.52c0-1.58-1.14-2.72-2.72-2.72h0Z" fill="#fff" />
			</g>
			<g>
				<path d="M235.46,54.2c-.85,0-1.51-.45-1.8-1.23l-13.03-40.93-12.95,40.88c-.31,.83-.96,1.27-1.82,1.27h-3.89c-.73,0-1.13-.32-1.33-.58-.21-.27-.41-.74-.21-1.47L216.37,3.07c.31-.82,.96-1.27,1.82-1.27h4.9c.85,0,1.51,.45,1.8,1.23l16,49.07,.09,.36c.02,.08,.03,.16,.03,.24,0,.75-.51,1.5-1.65,1.5h-3.9Z" fill="#2c71b2" />
				<path d="M223.08,2.8c.43,0,.72,.19,.86,.58l15.98,49.03,.07,.29c0,.34-.22,.5-.65,.5h-3.89c-.43,0-.72-.19-.86-.58l-13.75-43.2c-.05-.1-.12-.14-.22-.14s-.17,.05-.22,.14l-13.68,43.2c-.14,.38-.43,.58-.86,.58h-3.89c-.53,0-.72-.26-.58-.79L217.32,3.38c.14-.38,.43-.58,.86-.58h4.9m0-2h-4.9c-1.27,0-2.29,.7-2.74,1.87,0,.03-.02,.06-.03,.09l-15.91,49.03s-.02,.06-.03,.09c-.32,1.18,.1,1.97,.38,2.34,.28,.36,.92,.98,2.12,.98h3.89c1.28,0,2.3-.7,2.74-1.88,0-.03,.02-.06,.03-.1l11.99-37.88,12.06,37.88s.02,.06,.03,.09c.44,1.18,1.46,1.88,2.74,1.88h3.89c1.74,0,2.65-1.26,2.65-2.5,0-.16-.02-.32-.06-.48l-.07-.29s-.02-.09-.04-.14L225.84,2.76s-.02-.05-.03-.08c-.44-1.17-1.46-1.87-2.74-1.87h.01Z" fill="#fff" />
			</g>
			<g id="c">
				<path d="M186.95,54.2c-.83,0-1.48-.4-1.78-1.11l-10.4-21.93h-11.08v21.32c0,.95-.77,1.72-1.72,1.72h-3.67c-.95,0-1.72-.77-1.72-1.72V26.78c0-.95,.77-1.72,1.72-1.72h18.07c2.53,0,4.51-.75,6.06-2.3s2.3-3.53,2.3-6.06-.75-4.53-2.3-6.1-3.53-2.33-6.06-2.33h-18.07c-.95,0-1.72-.77-1.72-1.72V3.52c0-.95,.77-1.72,1.72-1.72h18.65c4.38,0,7.99,1.4,10.72,4.15,2.72,2.75,4.11,6.37,4.11,10.75,0,3.57-.99,6.66-2.95,9.18-1.78,2.29-4.14,3.86-7.05,4.67l10.4,21.35c.11,.23,.17,.5,.17,.8,0,.89-.65,1.5-1.58,1.5h-3.82Z" fill="#2c71b2" />
				<path d="M176.94,2.8c4.13,0,7.46,1.28,10.01,3.85,2.54,2.57,3.82,5.92,3.82,10.04,0,3.36-.91,6.22-2.74,8.57-1.82,2.35-4.3,3.86-7.42,4.54-.19,.1-.24,.22-.14,.36l10.8,22.18c.05,.1,.07,.22,.07,.36,0,.34-.19,.5-.58,.5h-3.82c-.43,0-.72-.17-.86-.5l-10.58-22.32c-.05-.14-.14-.22-.29-.22h-12.24c-.16,0-.29,.13-.29,.29v22.03c0,.4-.32,.72-.72,.72h-3.67c-.4,0-.72-.32-.72-.72V26.78c0-.4,.32-.72,.72-.72h18.07c2.78,0,5.04-.86,6.77-2.59s2.59-3.98,2.59-6.77-.86-5.05-2.59-6.8-3.98-2.63-6.77-2.63h-18.07c-.4,0-.72-.32-.72-.72V3.52c0-.4,.32-.72,.72-.72h18.65m0-2h-18.65c-1.5,0-2.72,1.22-2.72,2.72v3.02c0,1.5,1.22,2.72,2.72,2.72h18.07c2.25,0,3.99,.66,5.34,2.03,1.36,1.38,2.02,3.14,2.02,5.4s-.66,4-2.01,5.35c-1.35,1.35-3.1,2.01-5.35,2.01h-18.07c-1.5,0-2.72,1.22-2.72,2.72v25.7c0,1.5,1.22,2.72,2.72,2.72h3.67c1.5,0,2.72-1.22,2.72-2.72v-20.32h9.45l10.13,21.37c.47,1.05,1.47,1.67,2.68,1.67h3.82c1.49,0,2.58-1.05,2.58-2.5,0-.45-.09-.87-.28-1.24l-9.89-20.31c2.6-.94,4.76-2.5,6.44-4.66,2.09-2.7,3.16-5.99,3.16-9.79,0-4.65-1.48-8.51-4.39-11.45-2.92-2.95-6.77-4.44-11.43-4.44h-.01Z" fill="#fff" />
			</g>
			<g id="d">
				<g>
					<rect x="113.93" y="1.8" width="34.62" height="6.46" rx="1.72" ry="1.72" fill="#2c71b2" />
					<path d="M146.83,2.8c.4,0,.72,.32,.72,.72v3.02c0,.4-.32,.72-.72,.72h-31.18c-.4,0-.72-.32-.72-.72V3.52c0-.4,.32-.72,.72-.72h31.18m0-2h-31.18c-1.5,0-2.72,1.22-2.72,2.72v3.02c0,1.5,1.22,2.72,2.72,2.72h31.18c1.5,0,2.72-1.22,2.72-2.72V3.52c0-1.5-1.22-2.72-2.72-2.72h0Z" fill="#fff" />
				</g>
				<g>
					<rect x="113.93" y="47.74" width="34.62" height="6.46" rx="1.72" ry="1.72" fill="#2c71b2" />
					<path d="M146.83,48.74c.4,0,.72,.32,.72,.72v3.02c0,.4-.32,.72-.72,.72h-31.18c-.4,0-.72-.32-.72-.72v-3.02c0-.4,.32-.72,.72-.72h31.18m0-2h-31.18c-1.5,0-2.72,1.22-2.72,2.72v3.02c0,1.5,1.22,2.72,2.72,2.72h31.18c1.5,0,2.72-1.22,2.72-2.72v-3.02c0-1.5-1.22-2.72-2.72-2.72h0Z" fill="#fff" />
				</g>
				<g>
					<rect x="113.93" y="25.09" width="34.62" height="6.46" rx="1.72" ry="1.72" fill="#2c71b2" />
					<path d="M146.83,26.09c.4,0,.72,.32,.72,.72v3.02c0,.4-.32,.72-.72,.72h-31.18c-.4,0-.72-.32-.72-.72v-3.02c0-.4,.32-.72,.72-.72h31.18m0-2h-31.18c-1.5,0-2.72,1.22-2.72,2.72v3.02c0,1.5,1.22,2.72,2.72,2.72h31.18c1.5,0,2.72-1.22,2.72-2.72v-3.02c0-1.5-1.22-2.72-2.72-2.72h0Z" fill="#fff" />
				</g>
			</g>
			<g>
				<path d="M100.51,54.2c-1.03,0-1.72-.69-1.72-1.72V15.12l-10.26,15.73c-.57,.8-1.24,.96-1.7,.96h-1.87c-.64,0-1.2-.27-1.63-.79-.02-.03-.05-.06-.07-.09l-10.26-15.61V52.48c0,1.03-.69,1.72-1.72,1.72h-3.67c-1.03,0-1.72-.69-1.72-1.72V3.52c0-1.03,.69-1.72,1.72-1.72h3.74c.72,0,1.32,.31,1.7,.88l12.92,19.58L98.74,2.76c.57-.8,1.24-.96,1.7-.96h3.74c1.03,0,1.72,.69,1.72,1.72V52.48c0,1.03-.69,1.72-1.72,1.72,0,0-3.67,0-3.67,0Z" fill="#2c71b2" />
				<path d="M104.19,2.8c.48,0,.72,.24,.72,.72V52.48c0,.48-.24,.72-.72,.72h-3.67c-.48,0-.72-.24-.72-.72V12.45c0-.14-.05-.24-.14-.29-.02-.01-.05-.02-.07-.02-.06,0-.11,.05-.15,.16l-11.74,18c-.24,.34-.53,.5-.86,.5h-1.87c-.34,0-.62-.14-.86-.43l-11.74-17.86c-.04-.11-.09-.16-.15-.16-.02,0-.04,0-.07,.02-.1,.05-.14,.14-.14,.29V52.48c0,.48-.24,.72-.72,.72h-3.67c-.48,0-.72-.24-.72-.72V3.52c0-.48,.24-.72,.72-.72h3.74c.38,0,.67,.14,.86,.43l13.54,20.52s.12,.07,.22,.07,.17-.02,.22-.07L99.58,3.3c.24-.34,.53-.5,.86-.5h3.74m0-2h-3.74c-.99,0-1.87,.48-2.49,1.34-.02,.02-.03,.04-.05,.07l-11.94,18.23L73.89,2.13c-.57-.85-1.49-1.33-2.53-1.33h-3.74c-1.58,0-2.72,1.14-2.72,2.72V52.48c0,1.58,1.14,2.72,2.72,2.72h3.67c1.58,0,2.72-1.14,2.72-2.72V18.66l8.42,12.82c.04,.06,.09,.12,.13,.18,.62,.74,1.47,1.15,2.4,1.15h1.87c.99,0,1.87-.48,2.49-1.34,.02-.02,.03-.05,.05-.07l8.42-12.91V52.48c0,1.58,1.14,2.72,2.72,2.72h3.67c1.58,0,2.72-1.14,2.72-2.72V3.52c0-1.58-1.14-2.72-2.72-2.72h0Z" fill="#fff" />
			</g>
		</g>
		<g id="e">
			<g id="f">
				<rect x="1" y="1" width="54" height="54" rx="13" ry="13" fill="#2a6fb2" />
				<path d="M42,2c6.6,0,12,5.4,12,12v28c0,6.6-5.4,12-12,12H14c-6.6,0-12-5.4-12-12V14C2,7.4,7.4,2,14,2h28m0-2H14C6.28,0,0,6.28,0,14v28c0,7.72,6.28,14,14,14h28c7.72,0,14-6.28,14-14V14c0-7.72-6.28-14-14-14h0Z" fill="#fff" />
			</g>
			<path d="M41.72,23.14h-7.36c-1.66,0-3.02,1.34-3.02,3.01v23.84" fill="none" stroke="#fff" stroke-linecap="round" stroke-linejoin="round" stroke-width="2" />
			<path d="M23.7,49.99l.02-22.34c0-1.66-1.34-3-2.99-3l-6.34-.02" fill="none" stroke="#fff" stroke-linecap="round" stroke-linejoin="round" stroke-width="2" />
			<line x1="27.53" y1="49.99" x2="27.53" y2="13.43" fill="none" stroke="#fff" stroke-linecap="round" stroke-linejoin="round" stroke-width="2" />
			<path d="M10.11,21.85c1.34,0,2.43,1.09,2.43,2.43s-1.09,2.43-2.43,2.43-2.43-1.09-2.43-2.43,1.09-2.43,2.43-2.43m0-2c-2.44,0-4.43,1.99-4.43,4.43s1.99,4.43,4.43,4.43,4.43-1.99,4.43-4.43-1.99-4.43-4.43-4.43h0Z" fill="#fff" />
			<path d="M45.86,20.87c1.35,0,2.45,1.1,2.45,2.45s-1.1,2.45-2.45,2.45-2.45-1.1-2.45-2.45,1.1-2.45,2.45-2.45m0-2c-2.45,0-4.45,1.99-4.45,4.45s1.99,4.45,4.45,4.45,4.45-1.99,4.45-4.45-1.99-4.45-4.45-4.45h0Z" fill="#fff" />
			<path d="M34.67,12.36c.78,0,1.42,.64,1.42,1.42s-.64,1.42-1.42,1.42-1.42-.64-1.42-1.42,.64-1.42,1.42-1.42m0-1c-1.33,0-2.42,1.09-2.42,2.42s1.09,2.42,2.42,2.42,2.42-1.09,2.42-2.42-1.09-2.42-2.42-2.42h0Z" fill="#fff" />
			<path d="M27.28,21.21l-6.35-.03c-.85,0-1.65-.36-2.22-.99l-1.2-1.33" fill="none" stroke="#fff" stroke-linecap="round" stroke-linejoin="round" />
			<path d="M16.18,15.63c.87,0,1.57,.7,1.57,1.57s-.7,1.57-1.57,1.57-1.57-.7-1.57-1.57,.7-1.57,1.57-1.57m0-1c-1.42,0-2.57,1.15-2.57,2.57s1.15,2.57,2.57,2.57,2.57-1.15,2.57-2.57-1.15-2.57-2.57-2.57h0Z" fill="#fff" />
			<path d="M27.03,16.74h-2.09c-.88,0-1.72-.39-2.29-1.06l-1.34-1.59" fill="none" stroke="#fff" stroke-linecap="round" stroke-linejoin="round" />
			<path d="M20.21,11.1c.76,0,1.37,.62,1.37,1.37s-.62,1.37-1.37,1.37-1.37-.62-1.37-1.37,.62-1.37,1.37-1.37m0-1c-1.31,0-2.37,1.06-2.37,2.37s1.06,2.37,2.37,2.37,2.37-1.06,2.37-2.37-1.06-2.37-2.37-2.37h0Z" fill="#fff" />
			<path d="M27.65,18.28h2.15c.89,0,1.74-.4,2.31-1.08l1.48-1.79" fill="none" stroke="#fff" stroke-linecap="round" stroke-linejoin="round" />
			<path d="M27.52,7.5c1.23,0,2.23,1,2.23,2.23s-1,2.23-2.23,2.23-2.23-1-2.23-2.23,1-2.23,2.23-2.23m0-2c-2.33,0-4.23,1.9-4.23,4.23s1.9,4.23,4.23,4.23,4.23-1.9,4.23-4.23-1.9-4.23-4.23-4.23h0Z" fill="#fff" />
			<path d="M33.59,23.31v-1.13c0-1.24,.77-2.36,1.93-2.8l3.07-1.17" fill="none" stroke="#fff" stroke-linecap="round" stroke-linejoin="round" />
			<path d="M40.36,15.83c.75,0,1.36,.61,1.36,1.36s-.61,1.36-1.36,1.36-1.36-.61-1.36-1.36,.61-1.36,1.36-1.36m0-1c-1.3,0-2.36,1.06-2.36,2.36s1.06,2.36,2.36,2.36,2.36-1.06,2.36-2.36-1.06-2.36-2.36-2.36h0Z" fill="#fff" />
		</g>
	</g>
</svg>
